<svg xmlns="http://www.w3.org/2000/svg" width="1920" height="1080" viewBox="0 0 1920 1080"><rect width="1920" height="1080" fill="#081d35"/><text x="100" y="130" fill="#fff" font-family="Arial" font-size="64" font-weight="700">CENTRO DE DISTRIBUIÇÃO SUSTENTÁVEL</text><text x="100" y="190" fill="#5fd4eb" font-family="Arial" font-size="30">PAINEL AO VIVO DA OPERAÇÃO</text><g transform="translate(100 270)"><rect width="760" height="650" rx="28" fill="#0d365d"/><text x="45" y="70" fill="#fff" font-family="Arial" font-size="34">MAPA DE ROTAS</text><path d="M100 500 250 300l170 100 190-220" fill="none" stroke="#f59a2e" stroke-width="18"/><path d="M100 500 330 520 620 350" fill="none" stroke="#5fd4eb" stroke-width="18"/></g><g font-family="Arial" transform="translate(920 270)"><rect width="430" height="280" rx="28" fill="#fff"/><text x="35" y="65" font-size="28" fill="#647487">PEDIDOS</text><text x="35" y="170" font-size="82" font-weight="700" fill="#075a9c">152</text><rect x="470" width="430" height="280" rx="28" fill="#fff"/><text x="505" y="65" font-size="28" fill="#647487">NO PRAZO</text><text x="505" y="170" font-size="82" font-weight="700" fill="#075a9c">96%</text><rect y="320" width="430" height="280" rx="28" fill="#fff"/><text x="35" y="385" font-size="28" fill="#647487">CUSTO</text><text x="35" y="490" font-size="70" font-weight="700" fill="#075a9c">R$ 8.450</text><rect x="470" y="320" width="430" height="280" rx="28" fill="#fff"/><text x="505" y="385" font-size="28" fill="#647487">CO₂ EVITADO</text><text x="505" y="490" font-size="70" font-weight="700" fill="#2e7d32">1,2 t</text></g></svg>
