<svg xmlns="http://www.w3.org/2000/svg" width="3200mm" height="2400mm" viewBox="0 0 3200 2400"><rect width="3200" height="2400" rx="80" fill="#edf1f2" stroke="#075a9c" stroke-width="30"/><g stroke="#c8d2d8" stroke-width="18"><path d="M100 400H3100M100 800H3100M100 1200H3100M100 1600H3100M100 2000H3100M500 100V2300M1000 100V2300M1500 100V2300M2000 100V2300M2500 100V2300"/></g><g fill="none" stroke-width="70"><path d="M1600 1200 1200 700 500 450" stroke="#075a9c"/><path d="M1600 1200 1000 1750 450 2000" stroke="#f59a2e"/><path d="M1600 1200 2300 800 2850 450M1600 1200 2350 1700 2850 1950" stroke="#2e7d32"/></g><g font-family="Arial" font-weight="700"><text x="1600" y="1120" text-anchor="middle" font-size="100" fill="#081d35">CENTRO DE DISTRIBUIÇÃO</text><text x="700" y="390" font-size="120" fill="#075a9c">ROTA A</text><text x="530" y="2170" font-size="120" fill="#f59a2e">ROTA B</text><text x="2380" y="390" font-size="120" fill="#2e7d32">ROTA C</text><text x="2350" y="2140" font-size="70" fill="#2e7d32">COLETA REVERSA</text></g></svg>
